<svg xmlns="http://www.w3.org/2000/svg" viewBox="0 0 335.16 54.41"><title>logo</title><path d="M158.22,391.73,168,409.34h-9.07l-8.8-17.07h-4v17.07H138V369.09h16.64a11.48,11.48,0,0,1,8.45,3.48,11.65,11.65,0,0,1,3.46,8.54,10.48,10.48,0,0,1-2.33,6.79A11.22,11.22,0,0,1,158.22,391.73ZM154.36,386a4.67,4.67,0,0,0,3.48-1.42,5.09,5.09,0,0,0,0-7,4.72,4.72,0,0,0-3.46-1.42h-8.22V386Z" transform="translate(-138.04 -368.45)" style="fill:#fff"/><path d="M195.83,382.5l0,26.84a12.78,12.78,0,0,1-4,9.82q-4,3.7-10.57,3.7a20.81,20.81,0,0,1-8.53-1.66v-7.46a14.29,14.29,0,0,0,8.64,2.68,6.52,6.52,0,0,0,4.75-1.82,7.08,7.08,0,0,0,1.85-5.26V406.6a10.57,10.57,0,0,1-7.73,3.27,10.13,10.13,0,0,1-7.54-3.16,10.65,10.65,0,0,1-3.09-7.73V382.5h7.84V398a4.78,4.78,0,0,0,1.45,3.54,4.85,4.85,0,0,0,3.59,1.45,5.57,5.57,0,0,0,3.87-1.45,4.58,4.58,0,0,0,1.61-3.54V382.5Z" transform="translate(-138.04 -368.45)" style="fill:#fff"/><path d="M219.51,369.09h7.73v40.25l-6.92.05-.43-2.79a10.18,10.18,0,0,1-7.68,3.27,11.34,11.34,0,0,1-9-4,15.94,15.94,0,0,1,0-19.91,11.36,11.36,0,0,1,9-4,10.11,10.11,0,0,1,7.3,2.89ZM213.77,403a5.58,5.58,0,0,0,3.46-1.15,6.89,6.89,0,0,0,2.28-3.09v-5.68a7.06,7.06,0,0,0-2.3-3.12,5.86,5.86,0,0,0-8,.86,7.54,7.54,0,0,0-1.75,5.1,7.43,7.43,0,0,0,1.75,5.07A5.71,5.71,0,0,0,213.77,403Z" transform="translate(-138.04 -368.45)" style="fill:#fff"/><path d="M257.38,395.87a18.16,18.16,0,0,1-.16,2.3H239c.47,3.8,2.43,5.69,5.91,5.69a6.57,6.57,0,0,0,3.4-.83,9.28,9.28,0,0,0,2.82-2.87l5.53,2.74a11.39,11.39,0,0,1-4.56,5.12,13.27,13.27,0,0,1-7,1.85q-6.76,0-10.31-3.83t-3.54-10.12a14.24,14.24,0,0,1,3.65-10.06q3.65-3.94,9.93-3.95A11.69,11.69,0,0,1,254,385.7Q257.38,389.48,257.38,395.87ZM244.71,388q-4.46,0-5.53,4.88H250C249.4,389.66,247.64,388,244.71,388Z" transform="translate(-138.04 -368.45)" style="fill:#fff"/><path d="M271.94,409.87q-8.49,0-12.83-3.32l3.43-5.53a12,12,0,0,0,3.65,1.9,15.59,15.59,0,0,0,4.35.94,7,7,0,0,0,3.17-.43,1.75,1.75,0,0,0,1.23-1.66,2.13,2.13,0,0,0-1.34-1.93,23.25,23.25,0,0,0-4.24-1.51l-2.58-.77a16,16,0,0,1-2.36-1,9.25,9.25,0,0,1-2.17-1.42,6.55,6.55,0,0,1-1.37-1.9,5.87,5.87,0,0,1-.59-2.63,7.55,7.55,0,0,1,3.09-6.26,12.9,12.9,0,0,1,8.13-2.38,19.78,19.78,0,0,1,11,2.89l-3.65,5.05a12.23,12.23,0,0,0-6.17-2.26,7.17,7.17,0,0,0-3.2.27c-.91.32-1.36.86-1.36,1.61a1.64,1.64,0,0,0,.08.57,1.22,1.22,0,0,0,.32.48l.45.43a3.72,3.72,0,0,0,.62.4c.27.14.51.26.73.35s.5.2.85.32.67.23.92.3l1,.32,1,.32c1.21.4,2.24.77,3.08,1.13a15.7,15.7,0,0,1,2.63,1.47A6.45,6.45,0,0,1,282,398a7.16,7.16,0,0,1,.72,3.3,7.62,7.62,0,0,1-2.9,6.28A12.27,12.27,0,0,1,271.94,409.87Z" transform="translate(-138.04 -368.45)" style="fill:#fff"/><path d="M302.11,382a10.39,10.39,0,0,1,7.62,2.84,10.1,10.1,0,0,1,2.9,7.57v17H304.8v-16a4.24,4.24,0,0,0-1.4-3.3,5.17,5.17,0,0,0-3.6-1.26,5.55,5.55,0,0,0-3.89,1.45,4.64,4.64,0,0,0-1.58,3.54v15.57H286.5V369.09h7.83v16.15A10.41,10.41,0,0,1,302.11,382Z" transform="translate(-138.04 -368.45)" style="fill:#fff"/><path d="M330.3,409.87a13.7,13.7,0,1,1,10-4A13.53,13.53,0,0,1,330.3,409.87Zm0-6.87a5.72,5.72,0,0,0,4.51-2,7.4,7.4,0,0,0,1.77-5,7.53,7.53,0,0,0-1.77-5.07,6,6,0,0,0-9.05,0,7.58,7.58,0,0,0-1.74,5.1,7.47,7.47,0,0,0,1.74,5.07A5.74,5.74,0,0,0,330.3,403Z" transform="translate(-138.04 -368.45)" style="fill:#fff"/><path d="M363.17,382a11.41,11.41,0,0,1,8.94,4,15.87,15.87,0,0,1,0,19.91,11.39,11.39,0,0,1-8.94,4,10.18,10.18,0,0,1-7.35-2.89v15.83l-7.73-.06V382.5h7.73v2.36A10.18,10.18,0,0,1,363.17,382Zm-1.56,21a5.69,5.69,0,0,0,4.54-2,7.48,7.48,0,0,0,1.74-5,7.61,7.61,0,0,0-1.74-5.07,5.88,5.88,0,0,0-8-.86,6.63,6.63,0,0,0-2.28,3.14v5.58a6.53,6.53,0,0,0,2.25,3.11A5.7,5.7,0,0,0,361.61,403Z" transform="translate(-138.04 -368.45)" style="fill:#fff"/><path d="M394.56,382a11.37,11.37,0,0,1,8.93,4,15.84,15.84,0,0,1,0,19.91,11.35,11.35,0,0,1-8.93,4A10.22,10.22,0,0,1,387.2,407v15.83l-7.72-.06V382.5h7.72v2.36A10.22,10.22,0,0,1,394.56,382ZM393,403a5.67,5.67,0,0,0,4.53-2,7.44,7.44,0,0,0,1.75-5,7.57,7.57,0,0,0-1.75-5.07,5.88,5.88,0,0,0-8-.86,6.77,6.77,0,0,0-2.28,3.14v5.58a6.62,6.62,0,0,0,2.26,3.11A5.68,5.68,0,0,0,393,403Z" transform="translate(-138.04 -368.45)" style="fill:#fff"/><path d="M435.62,395.87a16.48,16.48,0,0,1-.16,2.3H417.27c.46,3.8,2.43,5.69,5.9,5.69a6.6,6.6,0,0,0,3.41-.83,9.28,9.28,0,0,0,2.82-2.87l5.52,2.74a11.39,11.39,0,0,1-4.56,5.12,13.25,13.25,0,0,1-7,1.85q-6.75,0-10.3-3.83t-3.54-10.12a14.2,14.2,0,0,1,3.65-10.06q3.64-3.94,9.92-3.95a11.66,11.66,0,0,1,9.18,3.79Q435.63,389.48,435.62,395.87ZM423,388c-3,0-4.82,1.63-5.53,4.88h10.79Q427.35,388,423,388Z" transform="translate(-138.04 -368.45)" style="fill:#fff"/><path d="M454.7,382a8.94,8.94,0,0,1,6.5,2.3L457.92,390a6.92,6.92,0,0,0-4.18-1.24,6,6,0,0,0-4.43,2,7.12,7.12,0,0,0-1.91,5.18v13.42h-7.83V382.5h7l.43,4.13Q450,382,454.7,382Z" transform="translate(-138.04 -368.45)" style="fill:#fff"/><path d="M465,368.45v.91h-2.58v6.76h-1.05v-6.76h-2.58v-.91Z" transform="translate(-138.04 -368.45)" style="fill:#fff"/><path d="M465.84,368.45h1.49l2.21,6.48,2.18-6.48h1.48v7.67h-1v-4.53c0-.16,0-.41,0-.78s0-.75,0-1.16L470,376.12h-1l-2.21-6.47v.23c0,.19,0,.48,0,.86s0,.67,0,.85v4.53h-1Z" transform="translate(-138.04 -368.45)" style="fill:#fff"/></svg>